<svg id="Layer_1" data-name="Layer 1" xmlns="http://www.w3.org/2000/svg" xmlns:xlink="http://www.w3.org/1999/xlink" viewBox="0 0 100.9913 103.128"><defs><style>.cls-1{fill:url(#linear-gradient);}.cls-2{fill:#fff;}.cls-3{fill:#d0d7dd;}.cls-4{fill:#8491a3;}.cls-5{fill:#97a3b2;}.cls-6{fill:#acb9c6;}.cls-7{fill:url(#linear-gradient-2);}.cls-8{fill:#6b7a91;}.cls-9{fill:#efefef;}.cls-10{fill:#c4c8ce;}.cls-11{fill:#d3d7dd;}.cls-12{fill:#e8e8e8;}.cls-13{fill:url(#linear-gradient-3);}</style><linearGradient id="linear-gradient" x1="45.9454" y1="51.564" x2="90.4778" y2="51.564" gradientUnits="userSpaceOnUse"><stop offset="0.2246" stop-color="#fff"/><stop offset="1" stop-color="#6b7a91"/></linearGradient><linearGradient id="linear-gradient-2" x1="8.4624" y1="61.9568" x2="56.05" y2="24.3682" gradientUnits="userSpaceOnUse"><stop offset="0" stop-color="#6b7a91"/><stop offset="0.7754" stop-color="#ebf1f3"/></linearGradient><linearGradient id="linear-gradient-3" x1="24.6589" y1="60.0044" x2="47.8047" y2="33.248" xlink:href="#linear-gradient-2"/></defs><title>altius</title><polygon class="cls-1" points="45.945 0 90.176 103.128 90.478 103.128 46.248 0 45.945 0"/><polygon class="cls-2" points="52.954 0 57.316 10.169 57.618 10.169 53.257 0 52.954 0"/><polygon class="cls-3" points="77.969 57.619 77.667 57.619 79.383 61.62 79.685 61.62 77.969 57.619"/><polygon class="cls-3" points="75.469 51.791 75.167 51.791 76.604 55.141 76.906 55.141 75.469 51.791"/><polygon class="cls-2" points="69.311 37.433 69.009 37.433 73.115 47.006 73.417 47.006 69.311 37.433"/><polygon class="cls-2" points="66.114 29.98 65.812 29.98 67.98 35.034 68.282 35.034 66.114 29.98"/><polygon class="cls-2" points="59.264 14.006 58.961 14.006 60.674 17.999 60.976 17.999 59.264 14.006"/><polygon class="cls-2" points="63.209 23.204 62.906 23.204 64.849 27.733 65.151 27.733 63.209 23.204"/><polygon class="cls-4" points="89.152 83.695 88.85 83.695 89.708 85.695 90.01 85.695 89.152 83.695"/><polygon class="cls-5" points="90.669 87.232 90.367 87.232 91.33 89.477 91.632 89.477 90.669 87.232"/><polygon class="cls-4" points="97.487 103.128 92.657 91.866 92.354 91.866 97.185 103.128 97.487 103.128"/><polygon class="cls-5" points="87.037 78.763 86.735 78.763 88.315 82.449 88.618 82.449 87.037 78.763"/><polygon class="cls-6" points="80.91 64.476 80.607 64.476 82.251 68.309 82.553 68.309 80.91 64.476"/><polygon class="cls-5" points="83.864 71.365 83.562 71.365 85.936 76.9 86.238 76.9 83.864 71.365"/><polygon class="cls-3" points="75.611 43.952 75.309 43.952 78.671 51.791 78.974 51.791 75.611 43.952"/><polygon class="cls-3" points="70.983 33.16 70.681 33.16 73.801 40.434 74.103 40.434 70.983 33.16"/><polygon class="cls-2" points="56.761 0 56.459 0 62.466 14.006 62.768 14.006 56.761 0"/><polygon class="cls-2" points="63.498 15.708 63.196 15.708 66.411 23.204 66.713 23.204 63.498 15.708"/><polygon class="cls-4" points="96.602 92.894 96.3 92.894 100.689 103.128 100.991 103.128 96.602 92.894"/><polygon class="cls-4" points="88.431 73.842 88.129 73.842 95.319 90.606 95.621 90.606 88.431 73.842"/><polygon class="cls-6" points="85.246 66.415 84.943 66.415 87.353 72.033 87.655 72.033 85.246 66.415"/><polygon class="cls-6" points="81.748 58.26 81.446 58.26 84.112 64.476 84.414 64.476 81.748 58.26"/><polygon class="cls-2" points="71.777 39.097 71.475 39.097 72.639 41.811 72.941 41.811 71.777 39.097"/><polygon class="cls-2" points="55.009 0 54.707 0 63.108 19.589 63.411 19.589 55.009 0"/><polygon class="cls-3" points="75.613 48.04 75.31 48.04 76.225 50.172 76.527 50.172 75.613 48.04"/><polygon class="cls-2" points="66.133 25.936 65.83 25.936 67.145 29.001 67.447 29.001 66.133 25.936"/><polygon class="cls-2" points="68.27 30.921 67.968 30.921 70.233 36.201 70.535 36.201 68.27 30.921"/><polygon class="cls-5" points="89.839 81.211 89.537 81.211 91.024 84.679 91.326 84.679 89.839 81.211"/><polygon class="cls-4" points="99.239 103.128 92.058 86.384 91.755 86.384 98.937 103.128 99.239 103.128"/><polygon class="cls-4" points="86.483 73.386 86.181 73.386 88.76 79.4 89.063 79.4 86.483 73.386"/><polygon class="cls-2" points="78.03 53.676 77.727 53.676 80.467 60.063 80.769 60.063 78.03 53.676"/><polygon class="cls-3" points="81.96 62.839 81.657 62.839 83.137 66.289 83.439 66.289 81.96 62.839"/><polygon class="cls-6" points="84.306 68.309 84.003 68.309 84.586 69.667 84.888 69.667 84.306 68.309"/><polygon class="cls-2" points="62.46 25.545 62.158 25.545 64.635 31.32 64.937 31.32 62.46 25.545"/><polygon class="cls-2" points="65.85 33.449 65.548 33.449 67.929 39 68.231 39 65.85 33.449"/><polygon class="cls-2" points="51.504 0 51.202 0 58.351 16.669 58.653 16.669 51.504 0"/><polygon class="cls-2" points="59.906 19.589 59.604 19.589 61.721 24.527 62.024 24.527 59.906 19.589"/><polygon class="cls-2" points="68.797 40.32 68.495 40.32 70.938 46.017 71.24 46.017 68.797 40.32"/><polygon class="cls-5" points="82.711 72.762 82.409 72.762 82.872 73.842 83.174 73.842 82.711 72.762"/><polygon class="cls-4" points="95.735 103.128 83.967 75.69 83.665 75.69 95.432 103.128 95.735 103.128"/><polygon class="cls-6" points="77.609 60.866 77.307 60.866 80.093 67.362 80.395 67.362 77.609 60.866"/><polygon class="cls-3" points="81.194 69.224 80.891 69.224 81.81 71.365 82.112 71.365 81.194 69.224"/><polygon class="cls-2" points="72.4 48.72 72.098 48.72 76.552 59.106 76.854 59.106 72.4 48.72"/><polygon class="cls-2" points="62.222 33.16 61.919 33.16 64.829 39.944 65.131 39.944 62.222 33.16"/><polygon class="cls-2" points="67.591 45.678 67.288 45.678 69.327 50.433 69.63 50.433 67.591 45.678"/><polygon class="cls-2" points="48 0 47.698 0 57.977 23.968 58.28 23.968 48 0"/><polygon class="cls-3" points="72.028 56.025 71.726 56.025 72.41 57.619 72.712 57.619 72.028 56.025"/><polygon class="cls-2" points="59.169 26.043 58.867 26.043 60.959 30.921 61.261 30.921 59.169 26.043"/><polygon class="cls-4" points="81.409 77.898 81.107 77.898 88.385 94.867 88.687 94.867 81.409 77.898"/><polygon class="cls-5" points="89.295 96.285 88.993 96.285 89.387 97.205 89.69 97.205 89.295 96.285"/><polygon class="cls-4" points="92.23 103.128 90.094 98.147 89.791 98.147 91.928 103.128 92.23 103.128"/><polygon class="cls-6" points="74.789 62.461 74.486 62.461 76.994 68.309 77.296 68.309 74.789 62.461"/><polygon class="cls-5" points="78.186 70.383 77.884 70.383 80.679 76.9 80.981 76.9 78.186 70.383"/><polygon class="cls-2" points="65.504 37.433 68.3 43.952 68.602 43.952 65.806 37.433 65.504 37.433"/><polygon class="cls-3" points="69.911 47.707 72.818 54.486 73.12 54.486 70.213 47.707 69.911 47.707"/><polygon class="cls-2" points="59.73 23.968 61.344 27.733 61.646 27.733 60.032 23.968 59.73 23.968"/><polygon class="cls-2" points="49.752 0 49.45 0 58.91 22.058 59.213 22.058 49.752 0"/><polygon class="cls-5" points="85.517 84.096 88.85 91.866 89.152 91.866 85.82 84.096 85.517 84.096"/><polygon class="cls-4" points="83.171 78.624 84.311 81.283 84.613 81.283 83.473 78.624 83.171 78.624"/><polygon class="cls-3" points="74.862 59.251 77.712 65.896 78.014 65.896 75.164 59.251 74.862 59.251"/><polygon class="cls-4" points="89.709 93.165 89.407 93.165 93.68 103.128 93.982 103.128 89.709 93.165"/><polygon class="cls-6" points="79.891 70.977 80.956 73.46 81.258 73.46 80.193 70.977 79.891 70.977"/><polygon class="cls-2" points="61.264 39.097 60.961 39.097 63.043 43.952 63.346 43.952 61.264 39.097"/><polygon class="cls-2" points="57.812 31.049 57.51 31.049 59.785 36.354 60.087 36.354 57.812 31.049"/><polygon class="cls-2" points="55.451 25.545 55.149 25.545 56.387 28.433 56.69 28.433 55.451 25.545"/><polygon class="cls-2" points="44.495 0 44.193 0 53.654 22.058 53.956 22.058 44.495 0"/><polygon class="cls-2" points="65.391 48.72 65.089 48.72 66.946 53.052 67.248 53.052 65.391 48.72"/><polygon class="cls-6" points="73.792 68.309 73.49 68.309 74.072 69.667 74.374 69.667 73.792 68.309"/><polygon class="cls-4" points="76.001 73.46 75.699 73.46 85.883 97.205 86.185 97.205 76.001 73.46"/><polygon class="cls-4" points="88.725 103.128 87.232 99.646 86.93 99.646 88.423 103.128 88.725 103.128"/><polygon class="cls-3" points="71.284 62.461 70.982 62.461 72.678 66.415 72.98 66.415 71.284 62.461"/><polygon class="cls-3" points="68.145 55.141 67.842 55.141 68.905 57.619 69.207 57.619 68.145 55.141"/><polygon class="cls-2" points="69.482 58.26 69.18 58.26 69.953 60.063 70.255 60.063 69.482 58.26"/><polygon class="cls-2" points="62.334 45.678 62.032 45.678 65.194 53.052 65.496 53.052 62.334 45.678"/><polygon class="cls-2" points="58.797 37.433 58.495 37.433 60.373 41.811 60.675 41.811 58.797 37.433"/><polygon class="cls-2" points="42.743 0 42.441 0 55.299 29.98 55.601 29.98 42.743 0"/><polygon class="cls-2" points="56.965 33.16 56.663 33.16 57.466 35.034 57.769 35.034 56.965 33.16"/><polygon class="cls-6" points="71.228 66.415 70.925 66.415 73.648 72.762 73.95 72.762 71.228 66.415"/><polygon class="cls-5" points="75.444 76.246 75.142 76.246 77.012 80.606 77.314 80.606 75.444 76.246"/><polygon class="cls-4" points="77.802 82.449 86.671 103.128 86.973 103.128 78.104 82.449 77.802 82.449"/><polygon class="cls-3" points="67.73 58.26 67.428 58.26 70.094 64.476 70.396 64.476 67.73 58.26"/><polygon class="cls-6" points="69.253 65.896 68.95 65.896 70.568 69.667 70.87 69.667 69.253 65.896"/><polygon class="cls-6" points="65.703 57.619 65.401 57.619 67.117 61.62 67.419 61.62 65.703 57.619"/><polygon class="cls-2" points="63.203 51.791 62.901 51.791 64.338 55.141 64.64 55.141 63.203 51.791"/><polygon class="cls-2" points="40.991 0 40.689 0 61.584 48.72 61.886 48.72 40.991 0"/><polygon class="cls-5" points="78.04 86.384 77.737 86.384 78.583 88.354 78.885 88.354 78.04 86.384"/><polygon class="cls-5" points="71.964 72.219 71.662 72.219 72.908 75.124 73.211 75.124 71.964 72.219"/><polygon class="cls-4" points="85.221 103.128 79.366 89.477 79.064 89.477 84.919 103.128 85.221 103.128"/><polygon class="cls-6" points="75.975 81.569 75.673 81.569 77.006 84.679 77.308 84.679 75.975 81.569"/><polygon class="cls-4" points="74.4 77.898 74.098 77.898 74.98 79.953 75.282 79.953 74.4 77.898"/><polygon class="cls-3" points="59.168 46.469 58.866 46.469 62.305 54.486 62.607 54.486 59.168 46.469"/><polygon class="cls-2" points="39.239 0 38.936 0 51.131 28.433 51.433 28.433 39.239 0"/><polygon class="cls-2" points="53.862 34.097 53.56 34.097 53.584 34.153 53.886 34.153 53.862 34.097"/><polygon class="cls-2" points="63.609 56.822 63.307 56.822 66.122 63.387 66.424 63.387 63.609 56.822"/><polygon class="cls-2" points="53.886 34.153 53.584 34.153 57.392 43.032 57.694 43.032 53.886 34.153"/><polygon class="cls-5" points="72.22 76.9 71.918 76.9 73.92 81.569 74.222 81.569 72.22 76.9"/><polygon class="cls-4" points="83.469 103.128 75.306 84.096 75.004 84.096 83.166 103.128 83.469 103.128"/><polygon class="cls-3" points="67.281 65.385 66.979 65.385 68.524 68.988 68.826 68.988 67.281 65.385"/><polygon class="cls-6" points="70.141 72.053 69.839 72.053 71.156 75.124 71.458 75.124 70.141 72.053"/><polygon class="cls-4" points="69.143 77.898 68.841 77.898 69.723 79.953 70.025 79.953 69.143 77.898"/><polygon class="cls-5" points="67.24 73.46 66.938 73.46 68.133 76.246 68.435 76.246 67.24 73.46"/><polygon class="cls-5" points="70.616 81.331 70.313 81.331 71.499 84.096 71.802 84.096 70.616 81.331"/><polygon class="cls-6" points="61.838 60.866 61.536 60.866 65.873 70.977 66.175 70.977 61.838 60.866"/><polygon class="cls-2" points="35.734 0 35.432 0 60.144 57.619 60.446 57.619 35.734 0"/><polygon class="cls-5" points="75.883 93.612 75.581 93.612 76.071 94.756 76.373 94.756 75.883 93.612"/><polygon class="cls-4" points="79.964 103.128 77.029 96.285 76.727 96.285 79.662 103.128 79.964 103.128"/><polygon class="cls-4" points="72.255 85.153 71.953 85.153 74.292 90.606 74.594 90.606 72.255 85.153"/><polygon class="cls-5" points="75.005 91.566 74.703 91.566 75.047 92.367 75.349 92.367 75.005 91.566"/><polygon class="cls-3" points="62.73 58.859 62.428 58.859 64.682 64.114 64.984 64.114 62.73 58.859"/><polygon class="cls-5" points="70.468 76.9 70.165 76.9 71.755 80.606 72.057 80.606 70.468 76.9"/><polygon class="cls-2" points="37.486 0 37.184 0 58.08 48.72 58.382 48.72 37.486 0"/><polygon class="cls-3" points="59.699 51.791 59.397 51.791 60.833 55.141 61.136 55.141 59.699 51.791"/><polygon class="cls-6" points="66.557 67.781 66.255 67.781 67.792 71.365 68.094 71.365 66.557 67.781"/><polygon class="cls-6" points="76.551 91.084 76.249 91.084 76.799 92.367 77.101 92.367 76.551 91.084"/><polygon class="cls-4" points="81.716 103.128 77.606 93.544 77.304 93.544 81.414 103.128 81.716 103.128"/><polygon class="cls-4" points="72.368 81.331 72.066 81.331 74.749 87.587 75.051 87.587 72.368 81.331"/><polygon class="cls-5" points="75.38 88.354 75.078 88.354 75.722 89.856 76.024 89.856 75.38 88.354"/><polygon class="cls-7" points="10.28 82.679 10.884 82.679 39.636 15.642 39.333 14.937 10.28 82.679"/><polygon class="cls-4" points="8.232 63.387 8.836 63.387 11.035 58.26 10.431 58.26 8.232 63.387"/><polygon class="cls-4" points="5.231 70.383 5.836 70.383 7.538 66.415 6.933 66.415 5.231 70.383"/><polygon class="cls-8" points="0 82.637 0.604 82.637 5.091 72.176 4.486 72.176 0 82.637"/><polygon class="cls-6" points="13.205 51.791 13.809 51.791 17.172 43.952 16.567 43.952 13.205 51.791"/><polygon class="cls-9" points="34.476 3.605 34.174 2.901 29.411 14.006 30.015 14.006 34.476 3.605"/><polygon class="cls-6" points="25.466 23.204 26.07 23.204 29.285 15.708 28.681 15.708 25.466 23.204"/><polygon class="cls-6" points="18.286 39.944 18.891 39.944 21.676 33.449 21.072 33.449 18.286 39.944"/><polygon class="cls-4" points="8.647 66.289 9.251 66.289 10.731 62.839 10.127 62.839 8.647 66.289"/><polygon class="cls-4" points="11.317 60.063 11.922 60.063 14.661 53.676 14.057 53.676 11.317 60.063"/><polygon class="cls-8" points="4.9 75.082 1.66 82.637 2.264 82.637 5.504 75.082 4.9 75.082"/><polygon class="cls-8" points="6.47 71.365 7.074 71.365 8.402 68.269 7.798 68.269 6.47 71.365"/><polygon class="cls-10" points="22.052 35.034 22.656 35.034 24.42 30.921 23.816 30.921 22.052 35.034"/><polygon class="cls-10" points="24.639 29.001 25.244 29.001 26.726 25.545 26.122 25.545 24.639 29.001"/><polygon class="cls-11" points="35.305 5.541 35.003 4.836 28.676 19.589 29.28 19.589 35.305 5.541"/><polygon class="cls-6" points="15.559 50.172 16.164 50.172 17.078 48.04 16.474 48.04 15.559 50.172"/><polygon class="cls-10" points="18.622 43.032 19.226 43.032 20.955 39 20.351 39 18.622 43.032"/><polygon class="cls-6" points="11.207 68.399 11.811 68.399 12.856 65.965 12.251 65.965 11.207 68.399"/><polygon class="cls-6" points="19.939 48.04 14.782 60.063 15.387 60.063 20.543 48.04 19.939 48.04"/><polygon class="cls-8" points="10.398 70.341 5.125 82.637 5.729 82.637 11.002 70.341 10.398 70.341"/><polygon class="cls-3" points="20.974 45.625 21.579 45.625 23.556 41.016 22.951 41.016 20.974 45.625"/><polygon class="cls-11" points="37.037 9.581 36.735 8.877 30.591 23.204 31.195 23.204 37.037 9.581"/><polygon class="cls-10" points="23.816 39 24.42 39 26.625 33.859 26.021 33.859 23.816 39"/><polygon class="cls-2" points="29.586 25.545 26.703 32.269 27.307 32.269 30.191 25.545 29.586 25.545"/><polygon class="cls-6" points="18.603 55.194 19.207 55.194 22.276 48.04 21.671 48.04 18.603 55.194"/><polygon class="cls-4" points="11.037 72.836 11.641 72.836 13.129 69.365 12.525 69.365 11.037 72.836"/><polygon class="cls-8" points="8.75 78.167 9.354 78.167 10.074 76.489 9.47 76.489 8.75 78.167"/><polygon class="cls-4" points="17.288 58.26 14.036 65.843 14.64 65.843 17.892 58.26 17.288 58.26"/><polygon class="cls-2" points="29.013 30.921 29.618 30.921 30.985 27.733 30.381 27.733 29.013 30.921"/><polygon class="cls-9" points="37.601 10.897 31.319 25.545 31.923 25.545 37.903 11.602 37.601 10.897"/><polygon class="cls-10" points="23.425 43.952 24.029 43.952 26.915 37.222 26.311 37.222 23.425 43.952"/><polygon class="cls-8" points="6.857 82.637 7.462 82.637 8.682 79.791 8.078 79.791 6.857 82.637"/><polygon class="cls-4" points="11.119 64.564 11.724 64.564 12.963 61.674 12.359 61.674 11.119 64.564"/><polygon class="cls-6" points="14.107 57.598 14.711 57.598 15.742 55.194 15.138 55.194 14.107 57.598"/><polygon class="cls-4" points="7.506 72.989 6.59 75.124 7.195 75.124 8.11 72.989 7.506 72.989"/><polygon class="cls-8" points="3.392 82.637 3.997 82.637 5.932 78.125 5.327 78.125 3.392 82.637"/><polygon class="cls-10" points="23.028 36.797 23.633 36.797 26.153 30.921 25.548 30.921 23.028 36.797"/><polygon class="cls-9" points="35.869 6.856 26.916 27.733 27.52 27.733 36.171 7.561 35.869 6.856"/><polygon class="cls-10" points="16.577 51.838 17.182 51.838 19.846 45.625 19.242 45.625 16.577 51.838"/><polygon class="cls-4" points="9.973 67.237 9.005 69.495 9.609 69.495 10.577 67.237 10.553 67.237 9.973 67.237"/><polygon class="cls-4" points="15.17 67.237 15.775 67.237 17.541 63.119 16.937 63.119 15.17 67.237"/><polygon class="cls-4" points="12.195 74.176 12.799 74.176 14.862 69.365 14.258 69.365 12.195 74.176"/><polygon class="cls-8" points="8.548 82.679 9.152 82.679 11.807 76.489 11.202 76.489 8.548 82.679"/><polygon class="cls-6" points="19.304 57.598 19.909 57.598 20.94 55.194 20.335 55.194 19.304 57.598"/><polygon class="cls-12" points="26.876 39.944 27.48 39.944 30.772 32.269 30.168 32.269 26.876 39.944"/><polygon class="cls-11" points="38.769 13.622 38.467 12.917 30.746 30.921 31.35 30.921 38.769 13.622"/><polygon class="cls-10" points="22.489 50.172 23.094 50.172 25.044 45.625 24.439 45.625 22.489 50.172"/><polygon class="cls-4" points="19.181 65.965 19.785 65.965 21.006 63.119 20.402 63.119 19.181 65.965"/><polygon class="cls-4" points="21.546 60.449 22.151 60.449 23.09 58.26 22.485 58.26 21.546 60.449"/><polygon class="cls-4" points="22.769 57.598 23.374 57.598 24.405 55.194 23.8 55.194 22.769 57.598"/><polygon class="cls-4" points="18.137 68.399 18.741 68.399 19.24 67.237 18.635 67.237 18.137 68.399"/><polygon class="cls-8" points="12.012 82.679 12.617 82.679 17.081 72.271 16.476 72.271 12.012 82.679"/><polygon class="cls-9" points="40.502 17.662 40.199 16.957 35.578 27.733 36.182 27.733 40.502 17.662"/><polygon class="cls-10" points="32.134 35.764 32.738 35.764 34.815 30.921 34.211 30.921 32.134 35.764"/><polygon class="cls-6" points="24.806 52.848 25.411 52.848 27.301 48.442 26.696 48.442 24.806 52.848"/><polygon class="cls-10" points="28.744 43.668 29.348 43.668 31.606 38.403 31.002 38.403 28.744 43.668"/><polygon class="cls-4" points="21.524 64.542 22.128 64.542 24.822 58.26 24.218 58.26 21.524 64.542"/><polygon class="cls-4" points="18.711 71.1 19.315 71.1 21.518 65.965 20.913 65.965 18.711 71.1"/><polygon class="cls-4" points="15.68 78.167 16.284 78.167 18.188 73.729 17.583 73.729 15.68 78.167"/><polygon class="cls-12" points="31.285 41.782 31.889 41.782 34.027 36.797 33.423 36.797 31.285 41.782"/><polygon class="cls-10" points="33.866 35.764 34.47 35.764 35.869 32.504 35.264 32.504 33.866 35.764"/><polygon class="cls-11" points="41.368 19.682 41.065 18.978 35.943 30.921 36.548 30.921 41.368 19.682"/><polygon class="cls-10" points="26.539 52.848 27.143 52.848 30.023 46.133 29.419 46.133 26.539 52.848"/><polygon class="cls-8" points="13.745 82.679 14.349 82.679 15.57 79.833 14.965 79.833 13.745 82.679"/><polygon class="cls-8" points="18.504 75.621 19.109 75.621 21.048 71.1 20.443 71.1 18.504 75.621"/><polygon class="cls-8" points="15.477 82.679 16.082 82.679 18.017 78.167 17.412 78.167 15.477 82.679"/><polygon class="cls-4" points="21.602 68.399 22.206 68.399 23.25 65.965 22.646 65.965 21.602 68.399"/><polygon class="cls-6" points="27.265 55.194 27.869 55.194 28.876 52.848 28.271 52.848 27.265 55.194"/><polygon class="cls-11" points="42.234 21.703 41.931 20.998 29.419 50.172 30.023 50.172 42.234 21.703"/><polygon class="cls-6" points="23.866 63.119 24.471 63.119 26.838 57.598 26.234 57.598 23.866 63.119"/><polygon class="cls-6" points="22.726 69.817 23.33 69.817 25.313 65.195 24.708 65.195 22.726 69.817"/><polygon class="cls-8" points="17.21 82.679 17.814 82.679 19.035 79.833 18.43 79.833 17.21 82.679"/><polygon class="cls-9" points="43.1 23.723 42.797 23.018 34.75 41.782 35.354 41.782 43.1 23.723"/><polygon class="cls-4" points="24.989 64.542 25.593 64.542 29.045 56.493 28.441 56.493 24.989 64.542"/><polygon class="cls-6" points="29.488 54.051 30.092 54.051 33.488 46.133 32.884 46.133 29.488 54.051"/><polygon class="cls-4" points="19.615 77.071 20.219 77.071 22.78 71.1 22.176 71.1 19.615 77.071"/><polygon class="cls-8" points="21.969 75.621 22.574 75.621 24.01 72.271 23.406 72.271 21.969 75.621"/><polygon class="cls-8" points="18.942 82.679 19.547 82.679 21.482 78.167 20.877 78.167 18.942 82.679"/><polygon class="cls-4" points="24.458 69.817 25.063 69.817 27.936 63.119 27.331 63.119 24.458 69.817"/><polygon class="cls-11" points="43.966 25.743 43.664 25.038 33.626 48.442 34.231 48.442 43.966 25.743"/><polygon class="cls-6" points="28.946 59.355 29.55 59.355 33.098 51.083 32.493 51.083 28.946 59.355"/><polygon class="cls-4" points="24.839 72.989 25.443 72.989 26.253 71.1 25.649 71.1 24.839 72.989"/><polygon class="cls-4" points="23.338 76.489 23.942 76.489 24.934 74.176 24.33 74.176 23.338 76.489"/><polygon class="cls-8" points="20.683 82.679 21.287 82.679 23.519 77.475 22.915 77.475 20.683 82.679"/><polygon class="cls-13" points="44.836 27.773 44.534 27.068 28.181 65.195 28.786 65.195 44.836 27.773"/><polygon class="cls-6" points="26.393 69.365 26.997 69.365 27.91 67.237 27.306 67.237 26.393 69.365"/></svg>