<?xml version="1.0" encoding="utf-8"?>
<!-- Generator: Adobe Illustrator 22.0.1, SVG Export Plug-In . SVG Version: 6.00 Build 0)  -->
<svg version="1.1" id="Layer_1" xmlns="http://www.w3.org/2000/svg" xmlns:xlink="http://www.w3.org/1999/xlink" x="0px" y="0px"
	 viewBox="0 0 101 103.1" style="enable-background:new 0 0 101 103.1;" xml:space="preserve">
<style type="text/css">
	.st0{fill:url(#SVGID_1_);}
	.st1{fill:#21222D;}
	.st2{fill:#5C6D7A;}
	.st3{fill:#4D5866;}
	.st4{fill:#393F51;}
	.st5{fill:url(#SVGID_2_);}
	.st6{fill:#6F7793;}
	.st7{fill:#101010;}
	.st8{fill:#303138;}
	.st9{fill:#22222B;}
	.st10{fill:#171717;}
	.st11{fill:url(#SVGID_3_);}
</style>
<title>altius</title>
<g>
	<linearGradient id="SVGID_1_" gradientUnits="userSpaceOnUse" x1="47.4195" y1="51.4867" x2="87.5669" y2="51.4867">
		<stop  offset="0.2246" style="stop-color:#000000"/>
		<stop  offset="1" style="stop-color:#6B7A91"/>
	</linearGradient>
	<polygon class="st0" points="47.4,5 87.3,98 87.6,98 47.7,5 	"/>
	<polygon points="53.7,5 57.7,14.2 57.9,14.2 54,5 	"/>
	<polygon class="st1" points="76.3,56.9 76,56.9 77.6,60.6 77.8,60.6 	"/>
	<polygon class="st1" points="74,51.7 73.8,51.7 75.1,54.7 75.3,54.7 	"/>
	<polygon points="68.5,38.7 68.2,38.7 71.9,47.4 72.2,47.4 	"/>
	<polygon points="65.6,32 65.3,32 67.3,36.6 67.6,36.6 	"/>
	<polygon points="59.4,17.6 59.2,17.6 60.7,21.2 61,21.2 	"/>
	<polygon points="63,25.9 62.7,25.9 64.5,30 64.7,30 	"/>
	<polygon class="st2" points="86.4,80.5 86.1,80.5 86.9,82.3 87.1,82.3 	"/>
	<polygon class="st3" points="87.7,83.6 87.5,83.6 88.3,85.7 88.6,85.7 	"/>
	<polygon class="st2" points="93.9,98 89.5,87.8 89.3,87.8 93.6,98 	"/>
	<polygon class="st3" points="84.5,76 84.2,76 85.6,79.3 85.9,79.3 	"/>
	<polygon class="st4" points="78.9,63.1 78.7,63.1 80.2,66.6 80.4,66.6 	"/>
	<polygon class="st3" points="81.6,69.3 81.3,69.3 83.5,74.3 83.7,74.3 	"/>
	<polygon class="st1" points="74.2,44.6 73.9,44.6 76.9,51.7 77.2,51.7 	"/>
	<polygon class="st1" points="70,34.9 69.7,34.9 72.5,41.5 72.8,41.5 	"/>
	<polygon points="57.2,5 56.9,5 62.3,17.6 62.6,17.6 	"/>
	<polygon points="63.2,19.2 63,19.2 65.9,25.9 66.1,25.9 	"/>
	<polygon class="st2" points="93.1,88.7 92.8,88.7 96.8,98 97,98 	"/>
	<polygon class="st2" points="85.7,71.6 85.4,71.6 91.9,86.7 92.2,86.7 	"/>
	<polygon class="st4" points="82.8,64.9 82.6,64.9 84.7,69.9 85,69.9 	"/>
	<polygon class="st4" points="79.7,57.5 79.4,57.5 81.8,63.1 82.1,63.1 	"/>
	<polygon points="70.7,40.2 70.4,40.2 71.5,42.7 71.8,42.7 	"/>
	<polygon points="55.6,5 55.3,5 62.9,22.7 63.2,22.7 	"/>
	<polygon class="st1" points="74.2,48.3 73.9,48.3 74.7,50.2 75,50.2 	"/>
	<polygon points="65.6,28.4 65.3,28.4 66.5,31.1 66.8,31.1 	"/>
	<polygon points="67.5,32.9 67.3,32.9 69.3,37.6 69.6,37.6 	"/>
	<polygon class="st3" points="87,78.2 86.7,78.2 88.1,81.3 88.3,81.3 	"/>
	<polygon class="st2" points="95.5,98 89,82.9 88.7,82.9 95.2,98 	"/>
	<polygon class="st2" points="84,71.2 83.7,71.2 86,76.6 86.3,76.6 	"/>
	<polygon points="76.3,53.4 76.1,53.4 78.5,59.1 78.8,59.1 	"/>
	<polygon class="st1" points="79.9,61.7 79.6,61.7 80.9,64.8 81.2,64.8 	"/>
	<polygon class="st4" points="82,66.6 81.7,66.6 82.3,67.8 82.5,67.8 	"/>
	<polygon points="62.3,28 62,28 64.3,33.2 64.5,33.2 	"/>
	<polygon points="65.4,35.2 65.1,35.2 67.2,40.2 67.5,40.2 	"/>
	<polygon points="52.4,5 52.2,5 58.6,20 58.9,20 	"/>
	<polygon points="60,22.7 59.7,22.7 61.6,27.1 61.9,27.1 	"/>
	<polygon points="68,41.4 67.7,41.4 70,46.5 70.2,46.5 	"/>
	<polygon class="st3" points="80.6,70.6 80.3,70.6 80.7,71.6 81,71.6 	"/>
	<polygon class="st2" points="92.3,98 81.7,73.2 81.4,73.2 92,98 	"/>
	<polygon class="st4" points="76,59.9 75.7,59.9 78.2,65.7 78.5,65.7 	"/>
	<polygon class="st1" points="79.2,67.4 78.9,67.4 79.8,69.3 80,69.3 	"/>
	<polygon points="71.3,48.9 71,48.9 75,58.3 75.3,58.3 	"/>
	<polygon points="62.1,34.9 61.8,34.9 64.4,41 64.7,41 	"/>
	<polygon points="66.9,46.2 66.7,46.2 68.5,50.5 68.8,50.5 	"/>
	<polygon points="49.3,5 49,5 58.3,26.6 58.5,26.6 	"/>
	<polygon class="st1" points="70.9,55.5 70.7,55.5 71.3,56.9 71.6,56.9 	"/>
	<polygon points="59.3,28.5 59.1,28.5 61,32.9 61.2,32.9 	"/>
	<polygon class="st2" points="79.4,75.2 79.1,75.2 85.7,90.5 86,90.5 	"/>
	<polygon class="st3" points="86.5,91.8 86.2,91.8 86.6,92.6 86.9,92.6 	"/>
	<polygon class="st2" points="89.1,98 87.2,93.5 86.9,93.5 88.9,98 	"/>
	<polygon class="st4" points="73.4,61.3 73.2,61.3 75.4,66.6 75.7,66.6 	"/>
	<polygon class="st3" points="76.5,68.5 76.2,68.5 78.7,74.3 79,74.3 	"/>
	<polygon points="65.1,38.7 67.6,44.6 67.8,44.6 65.3,38.7 	"/>
	<polygon class="st1" points="69,48 71.6,54.1 71.9,54.1 69.3,48 	"/>
	<polygon points="59.8,26.6 61.3,30 61.6,30 60.1,26.6 	"/>
	<polygon points="50.9,5 50.6,5 59.1,24.9 59.4,24.9 	"/>
	<polygon class="st3" points="83.1,80.8 86.1,87.8 86.4,87.8 83.4,80.8 	"/>
	<polygon class="st2" points="81,75.9 82,78.3 82.3,78.3 81.3,75.9 	"/>
	<polygon class="st1" points="73.5,58.4 76.1,64.4 76.3,64.4 73.8,58.4 	"/>
	<polygon class="st2" points="86.9,89 86.6,89 90.5,98 90.7,98 	"/>
	<polygon class="st4" points="78,69 79,71.2 79.3,71.2 78.3,69 	"/>
	<polygon points="61.2,40.2 61,40.2 62.8,44.6 63.1,44.6 	"/>
	<polygon points="58.1,33 57.8,33 59.9,37.8 60.2,37.8 	"/>
	<polygon points="56,28 55.7,28 56.8,30.6 57.1,30.6 	"/>
	<polygon points="46.1,5 45.8,5 54.4,24.9 54.6,24.9 	"/>
	<polygon points="65,48.9 64.7,48.9 66.4,52.8 66.6,52.8 	"/>
	<polygon class="st4" points="72.5,66.6 72.3,66.6 72.8,67.8 73,67.8 	"/>
	<polygon class="st2" points="74.5,71.2 74.2,71.2 83.4,92.6 83.7,92.6 	"/>
	<polygon class="st2" points="86,98 84.6,94.8 84.4,94.8 85.7,98 	"/>
	<polygon class="st1" points="70.3,61.3 70,61.3 71.5,64.9 71.8,64.9 	"/>
	<polygon class="st1" points="67.4,54.7 67.2,54.7 68.1,56.9 68.4,56.9 	"/>
	<polygon points="68.6,57.5 68.4,57.5 69.1,59.1 69.3,59.1 	"/>
	<polygon points="62.2,46.2 61.9,46.2 64.8,52.8 65,52.8 	"/>
	<polygon points="59,38.7 58.7,38.7 60.4,42.7 60.7,42.7 	"/>
	<polygon points="44.5,5 44.3,5 55.9,32 56.1,32 	"/>
	<polygon points="57.4,34.9 57.1,34.9 57.8,36.6 58.1,36.6 	"/>
	<polygon class="st4" points="70.2,64.9 69.9,64.9 72.4,70.6 72.7,70.6 	"/>
	<polygon class="st3" points="74,73.7 73.7,73.7 75.4,77.7 75.7,77.7 	"/>
	<polygon class="st2" points="76.1,79.3 84.1,98 84.4,98 76.4,79.3 	"/>
	<polygon class="st1" points="67.1,57.5 66.8,57.5 69.2,63.1 69.5,63.1 	"/>
	<polygon class="st4" points="68.4,64.4 68.2,64.4 69.6,67.8 69.9,67.8 	"/>
	<polygon class="st4" points="65.2,56.9 65,56.9 66.5,60.6 66.8,60.6 	"/>
	<polygon points="63,51.7 62.7,51.7 64,54.7 64.3,54.7 	"/>
	<polygon points="43,5 42.7,5 61.5,48.9 61.8,48.9 	"/>
	<polygon class="st3" points="76.4,82.9 76.1,82.9 76.8,84.7 77.1,84.7 	"/>
	<polygon class="st3" points="70.9,70.1 70.6,70.1 71.7,72.7 72,72.7 	"/>
	<polygon class="st2" points="82.8,98 77.5,85.7 77.3,85.7 82.6,98 	"/>
	<polygon class="st4" points="74.5,78.5 74.2,78.5 75.4,81.3 75.7,81.3 	"/>
	<polygon class="st2" points="73.1,75.2 72.8,75.2 73.6,77.1 73.9,77.1 	"/>
	<polygon class="st1" points="59.3,46.9 59.1,46.9 62.2,54.1 62.4,54.1 	"/>
	<polygon points="41.4,5 41.1,5 52.1,30.6 52.4,30.6 	"/>
	<polygon points="54.6,35.7 54.3,35.7 54.3,35.8 54.6,35.8 	"/>
	<polygon points="63.3,56.2 63.1,56.2 65.6,62.1 65.9,62.1 	"/>
	<polygon points="54.6,35.8 54.3,35.8 57.7,43.8 58,43.8 	"/>
	<polygon class="st3" points="71.1,74.3 70.8,74.3 72.6,78.5 72.9,78.5 	"/>
	<polygon class="st2" points="81.2,98 73.9,80.8 73.6,80.8 81,98 	"/>
	<polygon class="st1" points="66.7,63.9 66.4,63.9 67.8,67.2 68,67.2 	"/>
	<polygon class="st4" points="69.2,70 69,70 70.1,72.7 70.4,72.7 	"/>
	<polygon class="st2" points="68.3,75.2 68.1,75.2 68.9,77.1 69.1,77.1 	"/>
	<polygon class="st3" points="66.6,71.2 66.3,71.2 67.4,73.7 67.7,73.7 	"/>
	<polygon class="st3" points="69.7,78.3 69.4,78.3 70.5,80.8 70.7,80.8 	"/>
	<polygon class="st4" points="61.7,59.9 61.5,59.9 65.4,69 65.7,69 	"/>
	<polygon points="38.2,5 37.9,5 60.2,56.9 60.5,56.9 	"/>
	<polygon class="st3" points="74.4,89.4 74.1,89.4 74.6,90.4 74.9,90.4 	"/>
	<polygon class="st2" points="78.1,98 75.4,91.8 75.2,91.8 77.8,98 	"/>
	<polygon class="st2" points="71.1,81.8 70.9,81.8 73,86.7 73.2,86.7 	"/>
	<polygon class="st3" points="73.6,87.5 73.3,87.5 73.7,88.3 73.9,88.3 	"/>
	<polygon class="st1" points="62.6,58.1 62.3,58.1 64.3,62.8 64.6,62.8 	"/>
	<polygon class="st3" points="69.5,74.3 69.3,74.3 70.7,77.7 71,77.7 	"/>
	<polygon points="39.8,5 39.5,5 58.4,48.9 58.6,48.9 	"/>
	<polygon class="st1" points="59.8,51.7 59.5,51.7 60.8,54.7 61.1,54.7 	"/>
	<polygon class="st4" points="66,66.1 65.7,66.1 67.1,69.3 67.4,69.3 	"/>
	<polygon class="st4" points="75,87.1 74.7,87.1 75.2,88.3 75.5,88.3 	"/>
	<polygon class="st2" points="79.7,98 76,89.3 75.7,89.3 79.4,98 	"/>
	<polygon class="st2" points="71.2,78.3 71,78.3 73.4,84 73.7,84 	"/>
	<polygon class="st3" points="74,84.7 73.7,84.7 74.3,86 74.5,86 	"/>
	<linearGradient id="SVGID_2_" gradientUnits="userSpaceOnUse" x1="13.6273" y1="60.8562" x2="56.5291" y2="26.9687">
		<stop  offset="0" style="stop-color:#6B7A91"/>
		<stop  offset="0.7754" style="stop-color:#140E0C"/>
	</linearGradient>
	<polygon class="st5" points="15.3,79.5 15.8,79.5 41.7,19.1 41.5,18.5 	"/>
	<polygon class="st2" points="13.4,62.1 14,62.1 15.9,57.5 15.4,57.5 	"/>
	<polygon class="st2" points="10.7,68.5 11.3,68.5 12.8,64.9 12.2,64.9 	"/>
	<polygon class="st6" points="6,79.5 6.5,79.5 10.6,70.1 10,70.1 	"/>
	<polygon class="st4" points="17.9,51.7 18.4,51.7 21.5,44.6 20.9,44.6 	"/>
	<polygon class="st7" points="37.1,8.3 36.8,7.6 32.5,17.6 33.1,17.6 	"/>
	<polygon class="st4" points="29,25.9 29.5,25.9 32.4,19.2 31.9,19.2 	"/>
	<polygon class="st4" points="22.5,41 23,41 25.5,35.2 25,35.2 	"/>
	<polygon class="st2" points="13.8,64.8 14.3,64.8 15.7,61.7 15.1,61.7 	"/>
	<polygon class="st2" points="16.2,59.1 16.7,59.1 19.2,53.4 18.7,53.4 	"/>
	<polygon class="st6" points="10.4,72.7 7.5,79.5 8,79.5 11,72.7 	"/>
	<polygon class="st6" points="11.8,69.3 12.4,69.3 13.6,66.5 13,66.5 	"/>
	<polygon class="st8" points="25.9,36.6 26.4,36.6 28,32.9 27.5,32.9 	"/>
	<polygon class="st8" points="28.2,31.1 28.8,31.1 30.1,28 29.5,28 	"/>
	<polygon class="st9" points="37.8,10 37.6,9.4 31.9,22.7 32.4,22.7 	"/>
	<polygon class="st4" points="20,50.2 20.6,50.2 21.4,48.3 20.8,48.3 	"/>
	<polygon class="st8" points="22.8,43.8 23.3,43.8 24.9,40.2 24.3,40.2 	"/>
	<polygon class="st4" points="16.1,66.7 16.6,66.7 17.6,64.5 17,64.5 	"/>
	<polygon class="st4" points="24,48.3 19.3,59.1 19.9,59.1 24.5,48.3 	"/>
	<polygon class="st6" points="15.4,68.4 10.6,79.5 11.2,79.5 15.9,68.4 	"/>
	<polygon class="st1" points="24.9,46.1 25.5,46.1 27.2,42 26.7,42 	"/>
	<polygon class="st9" points="39.4,13.6 39.1,13 33.6,25.9 34.1,25.9 	"/>
	<polygon class="st8" points="27.5,40.2 28,40.2 30,35.5 29.5,35.5 	"/>
	<g>
		<polygon points="32.7,28 30.1,34.1 30.6,34.1 33.2,28 		"/>
	</g>
	<polygon class="st4" points="22.8,54.8 23.3,54.8 26.1,48.3 25.5,48.3 	"/>
	<polygon class="st2" points="15.9,70.7 16.5,70.7 17.8,67.5 17.3,67.5 	"/>
	<polygon class="st6" points="13.9,75.5 14.4,75.5 15.1,74 14.5,74 	"/>
	<polygon class="st2" points="21.6,57.5 18.7,64.4 19.2,64.4 22.1,57.5 	"/>
	<polygon points="32.2,32.9 32.7,32.9 33.9,30 33.4,30 	"/>
	<polygon class="st7" points="39.9,14.8 34.2,28 34.8,28 40.2,15.5 	"/>
	<polygon class="st8" points="27.1,44.6 27.7,44.6 30.3,38.6 29.7,38.6 	"/>
	<g>
		<polygon class="st6" points="12.2,79.5 12.7,79.5 13.8,76.9 13.3,76.9 		"/>
	</g>
	<polygon class="st2" points="16,63.2 16.6,63.2 17.7,60.6 17.1,60.6 	"/>
	<polygon class="st4" points="18.7,56.9 19.3,56.9 20.2,54.8 19.6,54.8 	"/>
	<polygon class="st2" points="12.8,70.8 11.9,72.7 12.5,72.7 13.3,70.8 	"/>
	<polygon class="st6" points="9.1,79.5 9.6,79.5 11.3,75.4 10.8,75.4 	"/>
	<polygon class="st8" points="26.8,38.2 27.3,38.2 29.6,32.9 29,32.9 	"/>
	<polygon class="st7" points="38.3,11.2 30.3,30 30.8,30 38.6,11.8 	"/>
	<polygon class="st8" points="20.9,51.7 21.5,51.7 23.9,46.1 23.3,46.1 	"/>
	<polygon class="st2" points="15,65.6 14.1,67.7 14.7,67.7 15.5,65.6 15.5,65.6 	"/>
	<polygon class="st2" points="19.7,65.6 20.2,65.6 21.8,61.9 21.3,61.9 	"/>
	<polygon class="st2" points="17,71.9 17.5,71.9 19.4,67.5 18.9,67.5 	"/>
	<polygon class="st6" points="13.7,79.5 14.2,79.5 16.6,74 16.1,74 	"/>
	<polygon class="st4" points="23.4,56.9 23.9,56.9 24.9,54.8 24.3,54.8 	"/>
	<polygon class="st10" points="30.2,41 30.8,41 33.7,34.1 33.2,34.1 	"/>
	<polygon class="st9" points="41,17.3 40.7,16.6 33.7,32.9 34.3,32.9 	"/>
	<polygon class="st8" points="26.3,50.2 26.8,50.2 28.6,46.1 28,46.1 	"/>
	<polygon class="st2" points="23.3,64.5 23.8,64.5 24.9,61.9 24.4,61.9 	"/>
	<polygon class="st2" points="25.4,59.5 26,59.5 26.8,57.5 26.3,57.5 	"/>
	<polygon class="st2" points="26.5,56.9 27.1,56.9 28,54.8 27.5,54.8 	"/>
	<polygon class="st2" points="22.3,66.7 22.9,66.7 23.3,65.6 22.8,65.6 	"/>
	<polygon class="st6" points="16.8,79.5 17.4,79.5 21.4,70.2 20.9,70.2 	"/>
	<polygon class="st7" points="42.5,20.9 42.2,20.3 38.1,30 38.6,30 	"/>
	<polygon class="st8" points="35,37.2 35.5,37.2 37.4,32.9 36.8,32.9 	"/>
	<polygon class="st4" points="28.4,52.6 28.9,52.6 30.6,48.7 30.1,48.7 	"/>
	<polygon class="st8" points="31.9,44.4 32.5,44.4 34.5,39.6 33.9,39.6 	"/>
	<polygon class="st2" points="25.4,63.2 25.9,63.2 28.4,57.5 27.8,57.5 	"/>
	<polygon class="st2" points="22.9,69.1 23.4,69.1 25.4,64.5 24.9,64.5 	"/>
	<polygon class="st2" points="20.1,75.5 20.7,75.5 22.4,71.5 21.9,71.5 	"/>
	<polygon class="st10" points="34.2,42.7 34.7,42.7 36.7,38.2 36.1,38.2 	"/>
	<polygon class="st8" points="36.5,37.2 37.1,37.2 38.3,34.3 37.8,34.3 	"/>
	<polygon class="st9" points="43.3,22.7 43,22.1 38.4,32.9 38.9,32.9 	"/>
	<polygon class="st8" points="29.9,52.6 30.5,52.6 33.1,46.6 32.5,46.6 	"/>
	<g>
		<polygon class="st6" points="18.4,79.5 18.9,79.5 20,77 19.5,77 		"/>
	</g>
	<polygon class="st6" points="22.7,73.2 23.2,73.2 25,69.1 24.4,69.1 	"/>
	<polygon class="st6" points="20,79.5 20.5,79.5 22.2,75.5 21.7,75.5 	"/>
	<polygon class="st2" points="25.5,66.7 26,66.7 27,64.5 26.4,64.5 	"/>
	<polygon class="st4" points="30.6,54.8 31.1,54.8 32,52.6 31.5,52.6 	"/>
	<polygon class="st9" points="44.1,24.6 43.8,23.9 32.5,50.2 33.1,50.2 	"/>
	<polygon class="st4" points="27.5,61.9 28.1,61.9 30.2,56.9 29.6,56.9 	"/>
	<polygon class="st4" points="26.5,67.9 27,67.9 28.8,63.8 28.3,63.8 	"/>
	<polygon class="st6" points="21.5,79.5 22.1,79.5 23.2,77 22.6,77 	"/>
	<polygon class="st7" points="44.9,26.4 44.6,25.8 37.3,42.7 37.9,42.7 	"/>
	<polygon class="st2" points="28.5,63.2 29.1,63.2 32.2,55.9 31.6,55.9 	"/>
	<polygon class="st4" points="32.6,53.7 33.1,53.7 36.2,46.6 35.6,46.6 	"/>
	<g>
		<polygon class="st2" points="23.7,74.5 24.2,74.5 26.5,69.1 26,69.1 		"/>
	</g>
	<polygon class="st6" points="25.8,73.2 26.3,73.2 27.6,70.2 27.1,70.2 	"/>
	<polygon class="st6" points="23.1,79.5 23.6,79.5 25.4,75.5 24.8,75.5 	"/>
	<polygon class="st2" points="28,67.9 28.6,67.9 31.2,61.9 30.6,61.9 	"/>
	<polygon class="st9" points="45.6,28.2 45.4,27.6 36.3,48.7 36.9,48.7 	"/>
	<polygon class="st4" points="32.1,58.5 32.6,58.5 35.8,51.1 35.3,51.1 	"/>
	<polygon class="st2" points="28.4,70.8 28.9,70.8 29.7,69.1 29.1,69.1 	"/>
	<polygon class="st2" points="27,74 27.6,74 28.5,71.9 27.9,71.9 	"/>
	<polygon class="st6" points="24.6,79.5 25.2,79.5 27.2,74.8 26.7,74.8 	"/>
	<linearGradient id="SVGID_3_" gradientUnits="userSpaceOnUse" x1="28.229" y1="59.096" x2="49.0957" y2="34.9742">
		<stop  offset="0" style="stop-color:#6B7A91"/>
		<stop  offset="0.7754" style="stop-color:#140E0C"/>
	</linearGradient>
	<polygon class="st11" points="46.4,30 46.1,29.4 31.4,63.8 31.9,63.8 	"/>
	<polygon class="st4" points="29.8,67.5 30.3,67.5 31.2,65.6 30.6,65.6 	"/>
</g>
</svg>